HIERARCHY
ROOT SpineBase
{
  OFFSET 0.000000 0.000000 0.000000
  CHANNELS 6 Xposition Yposition Zposition Zrotation Xrotation Yrotation
  JOINT SpineMid
  {
    OFFSET 0.000000 34.474100 0.000000
    CHANNELS 3 Zrotation Xrotation Yrotation
    JOINT SpineShoulder
    {
      OFFSET -0.292969 25.578247 -0.727295
      CHANNELS 3 Zrotation Xrotation Yrotation
      JOINT Neck
      {
        OFFSET -0.131187 8.451483 -0.562897
        CHANNELS 3 Zrotation Xrotation Yrotation
        JOINT Head
        {
          OFFSET 7.052200 10.430462 5.982612
          CHANNELS 3 Zrotation Xrotation Yrotation
          End Site
          {
            OFFSET 0 0 0
          }
        }
      }
      JOINT ShoulderLeft
      {
        OFFSET -11.341228 -5.949464 -2.202550
        CHANNELS 3 Zrotation Xrotation Yrotation
        JOINT ElbowLeft
        {
          OFFSET -6.382809 -26.545689 1.272558
          CHANNELS 3 Zrotation Xrotation Yrotation
          JOINT WristLeft
          {
            OFFSET 5.381344 -18.858611 -6.458046
            CHANNELS 3 Zrotation Xrotation Yrotation
            JOINT HandLeft
            {
              OFFSET 3.654026 -5.744152 2.997323
              CHANNELS 3 Zrotation Xrotation Yrotation
              JOINT HandTipLeft
              {
                OFFSET 1.574633 -7.544603 4.164081
                CHANNELS 3 Zrotation Xrotation Yrotation
                End Site
                {
                  OFFSET 0 0 0
                }
              }
              JOINT ThumbLeft
              {
                OFFSET 3.986545 2.495460 -7.770464
                CHANNELS 3 Zrotation Xrotation Yrotation
                End Site
                {
                  OFFSET 0 0 0
                }
              }
            }
          }
        }
      }
      JOINT ShoulderRight
      {
        OFFSET 9.332613 -8.363930 -13.433176
        CHANNELS 3 Zrotation Xrotation Yrotation
        JOINT ElbowRight
        {
          OFFSET 8.360960 -21.448852 -1.969277
          CHANNELS 3 Zrotation Xrotation Yrotation
          JOINT WristRight
          {
            OFFSET 9.230899 -12.787908 11.531871
            CHANNELS 3 Zrotation Xrotation Yrotation
            JOINT HandRight
            {
              OFFSET -2.800269 -5.865147 7.110534
              CHANNELS 3 Zrotation Xrotation Yrotation
              JOINT HandTipRight
              {
                OFFSET 0.310762 -1.345515 0.782391
                CHANNELS 3 Zrotation Xrotation Yrotation
                End Site
                {
                  OFFSET 0 0 0
                }
              }
              JOINT ThumbRight
              {
                OFFSET -0.419042 1.300842 -3.295421
                CHANNELS 3 Zrotation Xrotation Yrotation
                End Site
                {
                  OFFSET 0 0 0
                }
              }
            }
          }
        }
      }
    }
  }
  JOINT HipLeft
  {
    OFFSET -7.028469 0.212488 0.993626
    CHANNELS 3 Zrotation Xrotation Yrotation
    JOINT KneeLeft
    {
      OFFSET -1.021606 -30.381081 4.550986
      CHANNELS 3 Zrotation Xrotation Yrotation
      JOINT AnkleLeft
      {
        OFFSET -2.331292 -32.899444 -0.122214
        CHANNELS 3 Zrotation Xrotation Yrotation
        JOINT FootLeft
        {
          OFFSET -4.383887 -3.311284 -12.236095
          CHANNELS 3 Zrotation Xrotation Yrotation
          End Site
          {
            OFFSET 0 0 0
          }
        }
      }
    }
  }
  JOINT HipRight
  {
    OFFSET 6.992137 1.677806 -7.879674
    CHANNELS 3 Zrotation Xrotation Yrotation
    JOINT KneeRight
    {
      OFFSET 6.536504 -29.065949 -4.252333
      CHANNELS 3 Zrotation Xrotation Yrotation
      JOINT AnkleRight
      {
        OFFSET 2.236541 -35.443431 -2.313432
        CHANNELS 3 Zrotation Xrotation Yrotation
        JOINT FootRight
        {
          OFFSET -3.595616 -3.688216 -10.758877
          CHANNELS 3 Zrotation Xrotation Yrotation
          End Site
          {
            OFFSET 0 0 0
          }
        }
      }
    }
  }
}
MOTION
Frames: 11
Frame Time: 0.033333
3.030369 67.953036 310.628410 2.273007 0.149462 29.308235 -2.055388 0.982183 -29.293581 -0.088281 -0.975818 -0.021767 4.410496 -7.547519 3.819889 0.000000 0.000000 0.000000 53.423160 27.730428 -21.005231 -32.548700 -44.848014 -6.181238 -30.266119 -14.698150 -13.612908 12.200190 19.190015 18.199874 0.000000 0.000000 0.000000 0.000000 0.000000 0.000000 0.367168 6.405168 2.083250 3.618616 -8.643232 -0.148020 3.146012 22.049961 -4.740602 4.512185 -30.028947 7.660356 0.000000 0.000000 0.000000 0.000000 0.000000 0.000000 -9.109312 3.298933 -30.070466 7.258274 1.542421 0.942909 -1.082842 -1.568604 6.297198 0.000000 0.000000 0.000000 -5.056890 3.843570 -28.342054 3.999415 -1.088717 -0.787081 -1.466820 -3.753323 8.590508 0.000000 0.000000 0.000000
3.451745 68.003058 310.481036 2.807464 0.336397 21.257418 -2.738466 0.704350 -21.248825 0.741185 -0.781468 0.042267 3.617519 -8.788333 4.589393 0.000000 0.000000 0.000000 60.106370 27.357230 -23.418439 -35.755258 -49.908667 -7.535319 -28.151310 -1.262709 1.626922 16.395086 6.421979 12.222439 0.000000 0.000000 0.000000 0.000000 0.000000 0.000000 -0.820186 6.073498 2.035893 3.956688 -8.496493 -0.140162 8.603219 22.948664 1.515274 -6.773406 -30.755807 -3.207433 0.000000 0.000000 0.000000 0.000000 0.000000 0.000000 -11.927225 0.145922 -22.298162 8.301105 3.992896 0.827792 -1.391882 -0.465376 5.743121 0.000000 0.000000 0.000000 -6.097549 4.905571 -19.788046 4.587244 -2.806353 -1.183816 -2.533779 -1.917078 9.455909 0.000000 0.000000 0.000000
3.885423 67.946848 310.342614 3.474698 0.497230 8.052849 -2.562405 -0.609336 -8.039248 0.839294 -0.027972 0.089624 1.762483 -9.894522 5.550624 0.000000 0.000000 0.000000 62.788448 27.191292 -24.739539 -34.492232 -54.185874 -6.784001 -28.573275 9.829269 13.213727 19.811574 -3.124583 10.500350 0.000000 0.000000 0.000000 0.000000 0.000000 0.000000 -4.127742 5.729869 2.271674 6.129098 -8.530589 -0.231495 10.699842 18.868348 7.519187 -8.143022 -26.151637 -7.059852 0.000000 0.000000 0.000000 0.000000 0.000000 0.000000 -13.904888 -5.005327 -9.730327 10.186928 7.098636 0.535552 -1.900380 -2.942430 8.123051 0.000000 0.000000 0.000000 -8.294668 5.557176 -5.930137 5.353510 -5.017107 -1.671092 -3.689527 0.503557 9.831712 0.000000 0.000000 0.000000
4.178578 67.815751 310.225539 3.950880 0.603576 -4.438498 -2.212978 -1.123125 4.459814 0.996049 0.071512 0.124614 2.504011 -10.015166 4.659583 0.000000 0.000000 0.000000 62.882723 27.655894 -25.595264 -33.647321 -56.998937 -6.224820 -27.148531 18.278660 20.367376 21.702388 -10.522495 10.634033 0.000000 0.000000 0.000000 0.000000 0.000000 0.000000 -10.838454 9.606240 5.034904 8.335288 -10.209689 -3.064460 19.191174 26.613839 9.580507 -24.785998 -30.409380 -19.015968 0.000000 0.000000 0.000000 0.000000 0.000000 0.000000 -13.705877 -10.633715 2.150653 11.109781 10.058027 0.214208 -2.114086 -3.208199 8.470198 0.000000 0.000000 0.000000 -10.358312 5.094066 6.967893 6.527597 -7.448972 -2.007783 -6.151520 3.435190 11.789225 0.000000 0.000000 0.000000
4.367051 67.292279 309.855692 4.320948 0.906100 -9.597205 -1.853005 -1.279172 9.626466 1.068019 0.136532 0.155663 4.037270 -9.762594 2.985556 0.000000 0.000000 0.000000 55.666759 27.157830 -22.530166 -24.506441 -56.376826 -2.695022 -29.088061 27.552698 28.459308 17.963272 -18.065064 7.270916 0.000000 0.000000 0.000000 0.000000 0.000000 0.000000 -14.797960 6.768429 4.306743 12.267878 -10.258893 -3.564608 21.279427 32.446708 11.466006 -26.667138 -32.543328 -20.186621 0.000000 0.000000 0.000000 0.000000 0.000000 0.000000 -12.843376 -13.970790 7.121655 11.518827 12.153336 -0.126503 -2.718633 -7.420688 17.232663 0.000000 0.000000 0.000000 -12.273403 3.862349 12.247773 8.131917 -7.959013 -2.132053 -6.534095 1.488365 14.014257 0.000000 0.000000 0.000000
4.696928 67.193948 309.654407 4.829700 0.994269 -16.403249 -1.576707 -1.370017 16.447416 0.970668 0.166901 0.174959 4.994466 -8.962751 1.320782 0.000000 0.000000 0.000000 50.141312 26.916034 -20.599997 -17.224432 -53.063158 0.024615 -28.173502 23.337107 25.903063 19.944719 -10.118269 9.339734 0.000000 0.000000 0.000000 0.000000 0.000000 0.000000 -15.505395 2.137663 1.989729 17.097849 -9.258317 -0.677569 22.657178 36.864878 13.537825 -30.959275 -33.191548 -24.553963 0.000000 0.000000 0.000000 0.000000 0.000000 0.000000 -11.441354 -16.515052 13.928444 12.213640 13.239305 -0.397679 -1.925444 -8.494721 13.522068 0.000000 0.000000 0.000000 -14.401362 2.628708 19.235797 9.700600 -9.040119 -2.304185 -6.389871 2.178968 11.706874 0.000000 0.000000 0.000000
4.628334 67.377904 310.011990 4.832101 0.588522 -24.496160 -1.147680 -1.063210 24.570081 0.727465 0.238773 0.172402 6.844413 -9.067734 0.255673 0.000000 0.000000 0.000000 43.893162 26.517659 -18.367970 -6.984221 -52.337841 3.527658 -31.831469 24.777513 28.614735 21.890336 -11.616618 10.575874 0.000000 0.000000 0.000000 0.000000 0.000000 0.000000 -13.063548 -4.689158 -1.625117 22.343305 -5.407754 4.813071 25.947623 38.305819 20.025532 -28.863976 -36.581274 -23.834092 0.000000 0.000000 0.000000 0.000000 0.000000 0.000000 -9.094083 -16.856776 22.388728 13.065902 12.449692 -0.542225 0.019008 -16.054244 19.980882 0.000000 0.000000 0.000000 -15.689215 2.677028 27.779589 10.137332 -11.085605 -2.501082 -4.701467 2.736343 5.345423 0.000000 0.000000 0.000000
4.433821 67.762884 310.683687 4.633655 0.000172 -34.515786 -0.815778 -0.697331 34.615472 0.349788 0.381050 0.151468 8.742156 -9.011493 -0.715248 0.000000 0.000000 0.000000 36.818620 26.476387 -16.266950 3.074964 -50.702267 6.509728 -33.649366 23.659627 28.727202 24.449922 -11.096153 12.432238 0.000000 0.000000 0.000000 0.000000 0.000000 0.000000 -5.609891 -13.803084 -5.728891 23.104719 3.017692 11.000761 26.671152 33.941992 28.235883 -19.861450 -37.478751 -19.769184 0.000000 0.000000 0.000000 0.000000 0.000000 0.000000 -6.458491 -16.771835 32.823273 13.729334 11.953086 -0.601028 4.913988 -25.269971 19.553766 0.000000 0.000000 0.000000 -17.012546 2.726797 38.277581 9.772055 -13.422589 -2.712732 -1.174811 2.792001 -5.514715 0.000000 0.000000 0.000000
4.026397 68.270884 311.256797 4.168412 -0.332211 -42.479433 -0.466545 -0.359667 42.588533 0.113438 0.400536 0.136066 9.436680 -8.815347 -1.041247 0.000000 0.000000 0.000000 29.340171 26.851457 -14.455758 12.451961 -48.681443 9.007707 -35.007125 19.138292 25.656431 27.389445 -5.408716 14.324145 0.000000 0.000000 0.000000 0.000000 0.000000 0.000000 6.874723 -24.652274 -8.460024 18.059615 14.827020 17.679060 24.086483 25.446077 36.303075 -14.355848 -32.772251 -23.306151 0.000000 0.000000 0.000000 0.000000 0.000000 0.000000 -3.285908 -16.623850 41.362617 12.922097 11.924295 -0.610428 6.953852 -27.674771 -9.124200 0.000000 0.000000 0.000000 -17.696649 2.984726 46.588287 8.916516 -15.305966 -2.871825 3.772434 1.660545 -20.533895 0.000000 0.000000 0.000000
3.549773 68.886581 311.631334 3.601267 -0.314699 -49.951785 -0.136386 -0.194188 50.054563 -0.122648 0.394310 0.114165 10.881559 -9.375397 -1.031538 0.000000 0.000000 0.000000 22.558875 25.516584 -11.902386 18.519923 -45.326441 8.821413 -36.256767 18.271375 25.219626 29.016390 -2.443944 15.229342 0.000000 0.000000 0.000000 0.000000 0.000000 0.000000 22.324182 -33.819325 -7.752692 9.039736 26.258780 25.054111 20.895867 18.298036 41.126514 -10.755766 -24.985429 -29.895177 0.000000 0.000000 0.000000 0.000000 0.000000 0.000000 -0.061063 -16.041625 49.364203 12.057274 12.011296 -0.636342 10.509808 -41.350539 -19.541193 0.000000 0.000000 0.000000 -18.095829 2.956492 54.269753 7.910632 -16.925572 -3.023179 8.648069 -1.010276 -36.522192 0.000000 0.000000 0.000000
2.876572 69.579168 311.918339 2.727906 -0.155511 -56.418080 0.234667 0.042235 56.504061 -0.287136 0.398236 0.087864 11.621446 -10.218558 -0.266082 0.000000 0.000000 0.000000 16.420649 23.589059 -9.489834 22.554751 -41.019486 7.453959 -36.491159 20.332410 26.749871 27.837410 -4.269496 14.325357 0.000000 0.000000 0.000000 0.000000 0.000000 0.000000 36.430408 -35.938793 -4.643662 -0.643608 32.192811 32.237537 16.884774 11.222701 42.936684 -3.119466 -20.304007 -32.403607 0.000000 0.000000 0.000000 0.000000 0.000000 0.000000 3.497318 -14.555830 56.392451 10.039913 12.652813 -0.622333 9.190158 -42.385036 -35.264342 0.000000 0.000000 0.000000 -18.184391 3.381534 60.993168 6.707796 -18.314744 -3.172148 12.679592 -1.765766 -51.478945 0.000000 0.000000 0.000000
